{"title":"Alice in Chains - MTV Unplugged - 1080p - 60 FPS - Remastered","uid":14814413,"size":8761337795,"categoryP":"video","categoryS":"movies_dvdr","magnet":"?xt=urn:btih:0306677c98853c4e4fa9016095bd44c845041f3f&amp;dn=Alice+in+Chains+-+MTV+Unplugged+-+1080p+-+60+FPS+-+Remastered&amp;tr=udp%3A%2F%2Ftracker.leechers-paradise.org%3A6969&amp;tr=udp%3A%2F%2Fzer0day.ch%3A1337&amp;tr=udp%3A%2F%2Fopen.demonii.com%3A1337&amp;tr=udp%3A%2F%2Ftracker.coppersurfer.tk%3A6969&amp;tr=udp%3A%2F%2Fexodus.desync.com%3A6969","seeders":0,"leechers":9,"uploader":"epsilaf","files":1,"time":1465224228,"description":"Ripped directly from DVD. Remastered: 60 FPS, Full HD (1920x1080), Cropped, Sharpened and enhanced with filters. Audio quality is superb. Full show. Enjoy the amazing music even more in this amazing quality! Buy the DVD if you really enjoyed it ;)\r\n\r\nRegards\r\n\r\n\r\nScreenshots:\r\n \nhttp://imgur.com/a/j9kZN\r\n\r\nInfo:\r\n\r\nGeneral\r\nFormat                                   : MPEG-4\r\nFormat profile                           : Base Media / Version 2\r\nCodec ID                                 : mp42 (mp42/mp41)\r\nFile size                                : 8.16 GiB\r\nDuration                                 : 1h 11mn\r\nOverall bit rate mode                    : Variable\r\nOverall bit rate                         : 16.3 Mbps\r\n©TSC                                     : 60\r\n©TSZ                                     : 1\r\n\r\nVideo\r\nID                                       : 1\r\nFormat                                   : AVC\r\nFormat/Info                              : Advanced Video Codec\r\nFormat profile                           :   \r\nFormat settings, CABAC                   : Yes\r\nFormat settings, ReFrames                : 3 frames\r\nCodec ID                                 : avc1\r\nCodec ID/Info                            : Advanced Video Coding\r\nDuration                                 : 1h 11mn\r\nBit rate mode                            : Variable\r\nBit rate                                 : 16.0 Mbps\r\nWidth                                    : 1 920 pixels\r\nHeight                                   : 1 080 pixels\r\nDisplay aspect ratio                     : 16:9\r\nFrame rate mode                          : Constant\r\nFrame rate                               : 60.000 fps\r\nStandard                                 : NTSC\r\nColor space                              : YUV\r\nChroma subsampling                       : 4:2:0\r\nBit depth                                : 8 bits\r\nScan type                                : Progressive\r\nBits/(Pixel*Frame)                       : 0.129\r\nStream size                              : 8.00 GiB (98%)\r\nLanguage                                 : English\r\nColor range                              : Limited\r\nColor primaries                          : BT.709\r\nTransfer characteristics                 : BT.709\r\nMatrix coefficients                      : BT.709\r\n\r\nAudio\r\nID                                       : 2\r\nFormat                                   : AAC\r\nFormat/Info                              : Advanced Audio Codec\r\nFormat profile                           : LC\r\nCodec ID                                 : 40\r\nDuration                                 : 1h 11mn\r\nSource duration                          : 1h 11mn\r\nBit rate mode                            : Variable\r\nBit rate                                 : 317 Kbps\r\nMaximum bit rate                         : 419 Kbps\r\nChannel(s)                               : 2 channels\r\nChannel positions                        : Front: L R\r\nSampling rate                            : 48.0 KHz\r\nFrame rate                               : 46.875 fps (1024 spf)\r\nCompression mode                         : Lossy\r\nStream size                              : 163 MiB (2%)\r\nSource stream size                       : 163 MiB (2%)\r\nLanguage                                 : English","torrent":{"xt":"urn:btih:0306677c98853c4e4fa9016095bd44c845041f3f","amp;dn":"Alice+in+Chains+-+MTV+Unplugged+-+1080p+-+60+FPS+-+Remastered","amp;tr":["udp%3A%2F%2Ftracker.leechers-paradise.org%3A6969","udp%3A%2F%2Fzer0day.ch%3A1337","udp%3A%2F%2Fopen.demonii.com%3A1337","udp%3A%2F%2Ftracker.coppersurfer.tk%3A6969","udp%3A%2F%2Fexodus.desync.com%3A6969"],"infoHash":"0306677c98853c4e4fa9016095bd44c845041f3f","infoHashBuffer":{"type":"Buffer","data":[3,6,103,124,152,133,60,78,79,169,1,96,149,189,68,200,69,4,31,63]},"announce":[],"urlList":[]}}